<svg width="157" height="156" viewBox="0 0 157 156" fill="none" xmlns="http://www.w3.org/2000/svg">
<path d="M95.5171 98C93.9562 99.9272 92.0161 101.513 89.8171 102.66V112.47L109.447 98.47C110.158 97.9627 110.736 97.2916 111.133 96.5136C111.53 95.7355 111.734 94.8734 111.727 94V76L105.227 83C103.684 84.6811 101.651 85.8354 99.4171 86.3C99.4171 86.59 99.4171 86.89 99.4171 87.19C99.3656 91.1286 97.9921 94.9357 95.5171 98Z" fill="#FAF9F5"/>
<path d="M78.9364 37.0001C77.8013 36.9945 76.6928 37.3442 75.7664 38.0001L49.0964 57.0001H83.4564C85.1423 57.0027 86.7585 57.6736 87.9507 58.8658C89.1428 60.0579 89.8137 61.6741 89.8164 63.3601V67.3001L104.816 54.1701L82.1064 38.0001C81.1799 37.3442 80.0715 36.9945 78.9364 37.0001Z" fill="#FAF9F5"/>
<path d="M80.7372 105.75C78.556 106.145 76.344 106.346 74.1272 106.35C71.3651 106.423 68.612 106.003 65.9972 105.11C65.1053 104.758 64.325 104.172 63.7388 103.414C63.1527 102.655 62.7824 101.752 62.6672 100.8C62.5443 99.8383 62.6806 98.8611 63.0621 97.9697C63.4437 97.0783 64.0565 96.3051 64.8372 95.7301L68.6672 92.8601C69.2195 92.4649 69.6587 91.9321 69.9411 91.3146C70.2236 90.697 70.3395 90.0163 70.2772 89.3401C70.0495 87.2328 70.278 85.1012 70.9472 83.0901H57.2272V105.16L75.7672 118.07C76.6856 118.719 77.7826 119.068 78.9072 119.068C80.0319 119.068 81.1289 118.719 82.0472 118.07L86.0472 115.22V104.36C84.3188 104.97 82.5427 105.435 80.7372 105.75Z" fill="#D6B66B"/>
<path d="M45.9171 83.0901L45.8271 94.3201C45.8179 95.2049 46.0253 96.0786 46.4315 96.8647C46.8377 97.6509 47.4301 98.3257 48.1571 98.8301L53.4571 102.52V83.0901H45.9171Z" fill="#D6B66B"/>
<path d="M79.8067 72.5101H57.2267V79.3101H72.8767C73.3717 78.5999 73.9235 77.931 74.5267 77.3101C75.8909 75.9393 77.5133 74.8526 79.3001 74.1128C81.087 73.373 83.0027 72.9948 84.9367 73.0001C85.3067 73.0001 85.6767 73.0001 86.0367 73.0001V63.3001C86.034 62.6166 85.7614 61.9619 85.2781 61.4787C84.7948 60.9954 84.1401 60.7227 83.4567 60.7201H47.4567C47.054 60.7156 46.6519 60.7525 46.2567 60.8301C46.1899 61.1594 46.1531 61.4941 46.1467 61.8301L46.0867 68.6501H79.8067V72.5101Z" fill="#D6B66B"/>
<path d="M53.4457 72.51H46.0157L45.9557 79.31H53.4457V72.51Z" fill="#D6B66B"/>
<path d="M98.6673 82.68C100.118 82.363 101.438 81.6092 102.447 80.52L111.707 70.52L113.787 68.28L115.867 66.04L131.657 49.04C132.565 48.0933 133.064 46.8279 133.048 45.5165C133.031 44.2051 132.5 42.9527 131.568 42.0293C130.637 41.1059 129.38 40.5854 128.069 40.5799C126.757 40.5744 125.496 41.0844 124.557 42L111.197 53.64L109.587 55.05L107.987 56.45L92.1773 70.27C91.1065 71.2678 90.3667 72.5694 90.0573 74C92.0504 74.734 93.8592 75.8944 95.3573 77.4C96.8488 78.8846 97.981 80.6906 98.6673 82.68Z" fill="#179999"/>
<path d="M84.9362 76.8201C82.4004 76.8164 79.9427 77.6969 77.9862 79.3101C77.7162 79.5401 77.4462 79.7801 77.1962 80.0301C76.8365 80.3968 76.5024 80.7877 76.1962 81.2001C75.7483 81.7865 75.366 82.4203 75.0562 83.0901C74.1882 84.91 73.842 86.9351 74.0562 88.9401C74.1905 90.2785 73.9722 91.6288 73.4231 92.8568C72.874 94.0848 72.0132 95.1477 70.9262 95.9401L67.0162 98.8001C66.7789 98.9719 66.593 99.2051 66.4785 99.4747C66.3639 99.7443 66.3251 100.04 66.3662 100.33C66.3997 100.616 66.5105 100.887 66.6867 101.114C66.8629 101.342 67.0979 101.516 67.3662 101.62C71.2062 103.12 79.5662 103.03 86.0362 100.34C86.6811 100.072 87.312 99.7721 87.9262 99.4401C88.583 99.0952 89.2146 98.7042 89.8162 98.2701C90.8477 97.5638 91.765 96.7039 92.5362 95.7201C94.6445 93.1255 95.7548 89.8621 95.6662 86.5201C95.6343 85.8443 95.5304 85.1738 95.3562 84.5201C95.1635 83.7441 94.8675 82.9974 94.4762 82.3001C93.9889 81.4488 93.3791 80.6738 92.6662 80.0001C91.9786 79.3097 91.2017 78.7144 90.3562 78.2301C90.175 78.1203 89.988 78.0201 89.7962 77.9301C89.5762 77.8201 89.3462 77.7101 89.1162 77.6201C88.7901 77.4809 88.4562 77.3607 88.1162 77.2601L87.9062 77.2001C87.3305 77.036 86.7416 76.9222 86.1462 76.8601H86.0162C85.6662 76.8401 85.3062 76.8201 84.9362 76.8201Z" fill="#FAF9F5"/>
<path d="M122.008 39.16L108.008 51.38L84.5176 34.59C82.8906 33.4241 80.9392 32.7971 78.9376 32.7971C76.936 32.7971 74.9846 33.4241 73.3576 34.59L45.9776 54.1399C44.5497 55.1493 43.4285 56.5336 42.7376 58.1399C42.3537 59.0204 42.1075 59.9547 42.0076 60.91C42.0076 61.2199 41.9576 61.53 41.9576 61.84V63.9199V68.7V70.59V72.4799L41.8976 79.2799V81.1999V83.0899L41.6676 94.2799C41.6458 95.849 42.0102 97.3993 42.7287 98.7944C43.4471 100.189 44.4976 101.386 45.7876 102.28L53.4576 107.63L55.3376 108.94L57.2276 110.26L73.3876 121.53C75.0191 122.655 76.9568 123.252 78.9386 123.239C80.9204 123.227 82.8505 122.606 84.4676 121.46L86.0376 120.34L87.9276 119L89.8176 117.65L111.818 101.91C113.055 101.016 114.064 99.8409 114.759 98.4814C115.454 97.122 115.817 95.6169 115.818 94.0899V71.61L134.378 51.61C135.909 49.9358 136.735 47.7361 136.687 45.4681C136.638 43.2 135.717 41.038 134.115 39.4313C132.514 37.8246 130.355 36.8967 128.087 36.8406C125.819 36.7845 123.617 37.6044 121.938 39.1299L122.008 39.16ZM75.7676 38C76.6918 37.3373 77.8004 36.9809 78.9376 36.9809C80.0748 36.9809 81.1834 37.3373 82.1076 38L104.828 54.1899L89.8276 67.32V63.38C89.8289 62.5426 89.6651 61.7132 89.3456 60.9392C89.0261 60.1652 88.5571 59.4618 87.9654 58.8692C87.3738 58.2766 86.6711 57.8065 85.8976 57.4858C85.1241 57.165 84.295 56.9999 83.4576 57H49.0976L75.7676 38ZM86.0376 100.31C79.5676 103 71.2076 103.09 67.3676 101.59C67.0993 101.486 66.8644 101.311 66.6881 101.084C66.5119 100.857 66.4011 100.586 66.3676 100.3C66.3265 100.01 66.3653 99.7142 66.4799 99.4446C66.5944 99.175 66.7803 98.9417 67.0176 98.7699L70.9276 95.91C72.0146 95.1176 72.8754 94.0546 73.4245 92.8266C73.9736 91.5987 74.1919 90.2484 74.0576 88.91C73.8434 86.905 74.1896 84.8799 75.0576 83.0599C75.3674 82.3902 75.7497 81.7564 76.1976 81.1699C76.5038 80.7576 76.8379 80.3666 77.1976 80C77.4476 79.75 77.7176 79.5099 77.9876 79.2799C79.9441 77.6668 82.4018 76.7863 84.9376 76.79C85.3076 76.79 85.6776 76.79 86.0376 76.79H86.1676C86.763 76.8521 87.3519 76.9658 87.9276 77.13L88.1376 77.1899C88.4776 77.2906 88.8115 77.4108 89.1376 77.5499C89.3676 77.6399 89.5976 77.75 89.8176 77.86C90.0094 77.95 90.1964 78.0501 90.3776 78.16C91.2203 78.6673 91.9906 79.2863 92.6676 80C93.3557 80.6785 93.9418 81.4532 94.4076 82.3C94.7989 82.9973 95.0949 83.7439 95.2876 84.5199C95.4618 85.1737 95.5657 85.8442 95.5976 86.5199C95.6931 89.8455 94.6012 93.0963 92.5176 95.69C91.7464 96.6738 90.8291 97.5337 89.7976 98.2399C89.196 98.6741 88.5644 99.065 87.9076 99.41C87.2999 99.7414 86.6758 100.042 86.0376 100.31ZM46.1076 61.91C46.114 61.574 46.1509 61.2393 46.2176 60.91C46.6128 60.8324 47.0149 60.7955 47.4176 60.7999H83.4176C84.1011 60.8026 84.7558 61.0753 85.239 61.5585C85.7223 62.0418 85.995 62.6965 85.9976 63.38V73.08C85.6376 73.08 85.2676 73.08 84.8976 73.08C82.9637 73.0747 81.0479 73.4528 79.2611 74.1926C77.4742 74.9324 75.8518 76.0192 74.4876 77.3899C73.8844 78.0109 73.3326 78.6797 72.8376 79.3899H57.2276V72.59H79.8076V68.7299H46.0476L46.1076 61.91ZM46.0176 72.5099H53.4576V79.3099H45.9576L46.0176 72.5099ZM48.1576 98.83C47.4306 98.3255 46.8381 97.6508 46.432 96.8646C46.0258 96.0784 45.8183 95.2048 45.8276 94.32L45.9176 83.0899H53.4576V102.52L48.1576 98.83ZM82.0476 118C81.1292 118.649 80.0322 118.998 78.9076 118.998C77.783 118.998 76.686 118.649 75.7676 118L57.2276 105.16V83.0899H70.9676C70.2984 85.1011 70.0699 87.2327 70.2976 89.3399C70.3576 90.018 70.2387 90.6999 69.9527 91.3176C69.6666 91.9353 69.2235 92.4671 68.6676 92.86L64.7676 95.73C63.9996 96.3131 63.4005 97.0899 63.0315 97.9807C62.6625 98.8716 62.5369 99.8446 62.6676 100.8C62.7872 101.757 63.1649 102.664 63.7603 103.423C64.3557 104.183 65.1463 104.766 66.0476 105.11C68.6624 106.003 71.4155 106.423 74.1776 106.35C76.3944 106.346 78.6064 106.145 80.7876 105.75C82.5897 105.434 84.3624 104.969 86.0876 104.36V115.19L82.0476 118ZM111.728 94C111.728 94.8666 111.521 95.7207 111.125 96.4913C110.728 97.2619 110.153 97.9265 109.448 98.4299L89.8176 112.43V102.68C92.0185 101.527 93.9587 99.9344 95.5176 98C97.9887 94.9584 99.372 91.1781 99.4476 87.26C99.4476 86.96 99.4476 86.66 99.4476 86.37C101.682 85.9053 103.714 84.7511 105.258 83.07L111.758 76.07L111.728 94ZM131.728 49L115.938 66L113.808 68.2999L111.728 70.54L102.468 80.54C101.45 81.6254 100.123 82.3723 98.6676 82.68C97.9823 80.6708 96.8428 78.8468 95.3376 77.3499C93.8395 75.8443 92.0307 74.684 90.0376 73.95C90.3564 72.5373 91.0955 71.2544 92.1576 70.27L107.988 56.45L109.588 55.0499L111.198 53.6399L124.518 42C125.455 41.0518 126.731 40.5149 128.064 40.5074C129.398 40.4999 130.679 41.0224 131.628 41.96C132.576 42.8975 133.113 44.1733 133.12 45.5067C133.128 46.84 132.605 48.1218 131.668 49.07L131.728 49Z" fill="#0B7373"/>
</svg>
